Patient4_TMGait_0pt3_03_left_15_EMG.mot
version=1
nRows=30
nColumns=33
inDegrees=no
endheader
time	1LAddLong	2LGlutMax	3LGlutMed	4LIliopsoas	5LSemiMemb	6LBicFemLong	7LRecFem	8LVastMed	9LVastLat	10LGasMed	11LTibAnt	12lTibPost	13LPeroneusLong	14LSol	15LExtDigLong	16LFlexDigLong	17RAddLong	18RGlutMax	19RGlutMed	20RIliopsoas	21RSemiMemb	22RBicFemLong	23RRecFem	24RVastMed	25RVastLat	26RGasMed	27RTibAnt	28RTibPost	29RPeroneusLong	30RSol	31RExtDigLong	32RFlexDigLong
27.27	0.015259	0.23819	-0.039825	0.015411	-0.006104	0.011749	0.095978	-0.009308	-0.000305	0.003662	-0.083466	0.004883	0.043488	-0.057373	-0.16174	-0.012665	-0.00412	0.12512	0.20706	-0.029144	-0.000916	-0.092316	0.058746	-0.009003	-0.087738	0.00473	-0.10193	-0.000305	-0.22583	-0.14069	-0.002899	-0.001373
27.271	0.015717	0.23361	-0.024261	0.033569	-0.013275	0.016174	0.09964	-0.004425	0.004272	0.019836	-0.18509	0.011292	0.012665	-0.0737	-0.08316	0.00061	-0.022583	0.053406	0.3865	-0.001221	-0.005188	-0.1593	0.07782	0.029755	0.001068	0.002289	0.015259	-0.00351	-0.092621	-0.053864	-0.000458	-0.005035
27.272	0.017395	0.2504	-0.033112	0.032501	-0.007172	0.023499	0.089264	-0.009918	0.010071	0.026398	-0.16266	0.00351	-0.038605	-0.070953	0.042572	-0.000763	-0.006866	0.061188	0.027466	0.088806	-0.005646	-0.16312	-0.029755	0.054932	0.10117	-0.000153	0.01709	-0.001221	0.21072	0.00061	-0.003052	-0.00061
27.273	0.023499	0.24216	-0.04425	0.028229	-0.006104	-0.018616	0.066986	-0.002441	0.013733	0.034332	-0.09201	0.009308	-0.034637	-0.079956	0.1033	0.002747	-0.009155	0.018311	-0.019379	0.1178	-0.000305	-0.13672	-0.16907	0.083466	0.30792	-0.002289	0.020752	-0.000153	0.18799	-0.050354	-0.003815	-0.007935
27.274	0.024109	0.26001	-0.03006	0.028992	-0.001526	-0.033722	0.059357	-0.009155	0.01358	0.031281	-0.16525	0.011139	-0.005035	-0.085602	0.14648	-0.002899	0.014801	0.018005	-0.1741	0.11002	-0.020294	-0.094604	-0.07431	0.15274	0.39475	-0.003662	0.042572	-0.001831	0.049438	-0.038605	-0.000916	-0.009613
27.275	0.020599	0.30502	0.029602	-0.02121	0.007477	-0.051575	0.03067	-0.006409	0.032349	0.038452	-0.013733	0.008087	-0.019379	-0.061951	0.10452	0.021667	0.038147	0.11719	-0.37888	0.066071	-0.042419	-0.034637	0.026093	-0.19516	0.42664	0.003815	0.018768	0.00061	0.29495	0.002441	-0.002289	-0.003815
27.276	0.014648	0.33493	0.040741	-0.023804	0.001831	-0.06073	0.027161	-0.006561	0.007324	0.036011	0.11307	0.007935	-0.019379	-0.043182	0.017853	0.002899	0.025482	0.18997	0.49957	-0.071716	-0.038147	0.001984	0.038605	-0.33035	0.33463	0.001068	-0.024109	0.001373	1.0374	0.055542	-0.002899	-0.005493
27.277	0.018005	0.33981	0.020599	-0.007935	0.001373	-0.088043	0.005798	-0.007782	0.005188	0.010834	0.1181	0.010376	0.021973	0.033569	-0.028534	-0.011139	0.039978	0.17334	1.0071	-0.10132	-0.030365	0.057678	0.032806	-0.2298	0.11581	0.001221	-0.037537	0.005646	0.57449	-0.01358	-0.001373	-0.010223
27.278	0.010681	0.35812	0.021515	-0.012817	0.010529	-0.072174	0.033112	0.001068	0.014954	-0.005493	0.057831	0.014648	0.036469	0.037079	-0.01358	-0.007019	0.036469	0.11337	1.0371	-0.057831	-0.006256	0.080872	0.069427	0.072937	-0.26062	0	0.003357	0.000763	0.13382	-0.00061	-0.002899	-0.005035
27.279	0.00885	0.34073	0.013885	-0.023193	0.007172	-0.050964	0.025787	-0.000153	0.018463	0.008698	0.011902	0.008545	-0.001678	-0.003052	0.066986	0.008698	0.016479	0.086365	0.65445	-0.032806	0.009613	0.12146	-0.049896	0.10788	-0.41306	0.000763	0.016174	0.000763	-0.64499	-0.055237	-0.003204	-0.000763
27.28	-0.003815	0.30716	-0.000305	-0.015869	0.008392	-0.045929	0.048523	-0.003052	0.017548	0.015869	0.052643	0.003357	-0.02533	-0.020294	0.071106	-0.000458	-0.022583	0.079041	0.41397	0.013428	0.009308	0.1062	-0.39505	-0.007782	-0.27298	-0.00473	0.024719	0.002289	-1.0667	-0.11017	-0.00061	-0.013428
27.281	-0.00061	0.30868	-0.00412	-0.005951	0.006866	-0.039673	0.045624	-0.000305	0.01709	0.018311	0.097504	0.012512	-0.050049	0.013428	0.078125	0.004883	-0.013123	0.049591	-0.1709	0.033112	-0.099487	0.057678	-0.48843	0.075073	0.21576	-0.000458	-0.050201	-0.000153	-0.53253	-0.058746	-0.003662	-0.00885
27.282	-0.00824	0.30594	-0.006409	0.005188	-0.001373	-0.040894	0.024109	0.00351	0.017395	0.013428	0.070496	-0.001678	-0.00946	0.036011	0.058136	0.004425	0.024414	0.094147	-0.092926	-0.039215	-0.071869	0.005035	-0.31265	-0.030212	0.55313	0.002441	-0.019531	0.001984	-0.1384	-0.02182	-0.007172	-0.002747
27.283	-0.004425	0.28748	-0.006561	0.000458	0.009918	-0.023041	0.046997	0.011749	0.011597	0.024567	0.092163	0.013885	-0.017548	-0.027924	0.063019	0.000153	0.026245	0.12848	0.075531	-0.070648	-0.014343	-0.021057	-0.24246	-0.017853	0.4805	0.004272	0.075989	0.001984	-0.74417	-0.092163	-0.003815	0
27.284	-0.00412	0.31113	-0.009613	0.006104	0.006409	-0.012817	0.03891	0.003204	0.00473	0.025177	0.12207	0.006561	-0.037079	-0.010223	0.11368	0.001678	0.019073	0.13611	0.69824	-0.055847	0.041504	0.001221	-0.27222	-0.14755	0.15228	0.004883	0.023041	0.002441	-0.69809	-0.086975	-0.001221	-0.003967
27.285	-0.047913	0.31342	0.003662	-0.014954	0.000305	-0.032043	0.040283	0.00473	0.003967	0.022278	-0.074005	0.00885	-0.027618	0.021362	0.094604	0.003052	-0.032349	0.11704	0.49439	0.044708	0.065002	-0.006714	-0.32516	-0.11047	-0.16968	0.001221	0.034943	0.006104	-0.59189	-0.080261	-0.000458	0.005798
27.286	-0.067139	0.27573	0.002899	-0.020599	0.00061	-0.037994	0.056458	0.001526	0.006714	0.020294	-0.079803	0.011444	-0.004883	0.005188	-0.057068	-0.001984	-0.033417	0.07019	-0.16464	0.12161	0.041351	0	-0.23285	0.62088	-0.35111	0.00061	0.030823	0.003204	0.12665	-0.06073	-0.003662	0.003967
27.287	0.056	0.23331	0.010681	-0.02121	0.006561	-0.040283	0.044708	-0.001678	0.00473	0.009155	0.004425	0.023804	-0.003662	-0.008087	0.22247	-0.007935	-0.015411	-0.010986	-0.74921	0.14908	0.064545	-0.006561	0.032349	0.89081	-0.54855	-0.000153	-0.014954	0.006409	0.46982	0.021362	-0.000916	0.006409
27.288	0.063782	0.21652	0.044861	-0.018921	0.005646	-0.059509	0.056	-0.001068	0.00946	0.017242	0.10971	0.014343	-0.028992	-0.024872	0.045319	-0.004425	0.018463	-0.062256	-0.71869	0.05188	0.11414	-0.029602	0.28153	0.72983	-0.52582	0.000916	0.007935	0.001984	0.15961	-0.005035	-0.002136	0.000763
27.289	0.029907	0.20813	0.081635	-0.019684	-0.004425	-0.062408	0.032196	0.006104	0.015106	0.013428	0.10849	0.00885	-0.017395	0.014038	0.17639	0.006256	-0.001221	-0.012054	-0.1799	0.006256	0.10223	-0.009003	0.21057	0.25635	-0.20065	0.007782	-0.049133	0.002441	0.052338	-0.048676	-0.001831	-0.003204
27.29	0.016785	0.19394	0.02594	0	0.000458	-0.078125	0.031586	0.002289	0.025024	-0.007019	0.005493	0.01236	-0.001221	0.02243	-0.45822	0.003204	-0.030212	0.048676	0.10376	-0.036621	-0.11368	0.079041	-0.068512	0.22308	0.020599	0.007172	-0.078278	0.005798	0.024261	-0.062561	-0.004272	-0.000153
27.291	0.010681	0.15976	-0.034027	0.011749	0.00351	-0.079041	0.032196	0.005951	0.026855	0.002747	-0.062103	0.006104	0.008545	0.014954	-0.087585	-0.00824	-0.030212	0.054169	0.67551	-0.076599	-0.18662	0.092621	-0.18936	0.000763	0.12283	-0.005341	-0.036926	0.00412	0.043488	-0.079041	-0.001221	-0.002289
27.292	0.005341	0.15289	-0.021515	-0.002594	0.001221	-0.084839	0.054779	0.015564	0.009613	0.021973	-0.015717	0.010223	-0.02594	-0.014648	-0.00473	-0.003052	0.007019	0.088196	0.75455	0.030365	-0.015259	0.026703	-0.1239	0.03891	0.18005	-0.005798	-0.001373	0.000153	0.015869	-0.057983	-0.001221	0.009003
27.293	0.002747	0.14938	-0.023499	0.000916	-0.000305	-0.074768	0.028534	0.006561	0.019989	0.019073	0.022583	0.012512	-0.052948	0.007782	-0.11505	-0.009308	0.035706	0.080109	0.14725	0.074158	-0.023041	-0.001373	-0.1059	0.074768	0.18539	-0.004883	0.009918	0.003052	-0.000458	-0.029907	-0.00351	-0.007477
27.294	0.008087	0.12695	-0.018311	0.024567	0.005646	-0.075836	0.019989	-0.006866	0.018768	0.007019	-0.002594	0.013733	-0.031128	0.021057	-0.057831	0.000153	0.013733	0.045776	0.0354	0.065613	-0.009766	0.004578	0.026703	-0.30624	0.28107	-0.008545	0.016022	0.005341	-0.0354	-0.018311	0.007782	-0.007629
27.295	0.014038	0.10193	-0.031281	0.021057	0.000458	-0.095825	0.027618	0.002441	0.008087	0.000763	-0.086212	0.016785	-0.012207	0.013733	0.021515	-0.002747	0.003357	-0.015717	0.13382	0.072784	-0.091248	0.042267	-0.019226	-0.5014	0.44846	-0.004272	0.008545	0.003815	-0.032501	-0.008087	-0.002899	-0.001678
27.296	0.008698	0.091553	-0.036011	0.003815	0.006104	-0.061493	0.057678	0.001221	-0.000763	-0.00824	-0.14221	0.01358	-0.002747	-0.021362	-0.11078	0.022736	0.021667	-0.022278	0.42847	0.044708	-0.066833	0.040436	0.053101	-0.28686	0.4068	0	0.006256	0.001984	-0.049286	-0.012207	-0.001221	0.004883
27.297	0.016785	0.045319	-0.005798	-0.004578	0.004578	-0.055847	0.077057	0.006561	0.005646	0.007019	-0.1947	0.013123	0.000916	-0.044098	0.112	0.007935	0.075226	0.007172	0.54977	-0.14847	-0.068665	0.022278	0.061035	-0.39948	0.19882	0.000305	-0.000763	0.00351	-0.029449	-0.034943	-0.000763	0.011292
27.298	0.010223	0.029449	-0.029144	0.020142	0.007629	-0.058289	0.068665	0.001526	-0.010376	0.025787	-0.085754	0.018005	-0.036469	-0.003662	0.14511	0.005341	0.112	0.050201	0.59372	-0.22781	0.005035	-0.04425	0.011749	-0.47714	-0.033264	-0.001221	-0.004883	0.003357	-0.016479	-0.042877	0.003967	0.01358
27.299	0.019073	0.0383	-0.041351	0.00473	0.005341	-0.036316	0.056763	0.012817	-0.005798	0.00946	0.10803	0.017853	-0.046997	0.062866	0.025635	-0.005493	0.03891	0.011749	0.36758	-0.12146	0.004578	-0.009003	-0.079651	-0.29984	-0.081787	-0.001221	0.000763	0.000305	0.07843	-0.032349	-0.000305	0.016785
